<svg width="90" height="70" viewBox="0 0 166 140" fill="none" xmlns="http://www.w3.org/2000/svg">
    <path d="M118.057 101.51H109.004C108.108 101.51 107.383 100.898 107.383 100.143V95.1458C107.383 94.3906 108.108 93.7787 109.004 93.7787H118.057C118.953 93.7787 119.678 94.3906 119.678 95.1458V100.143C119.678 100.898 118.953 101.51 118.057 101.51ZM110.625 98.776H116.436V96.513H110.625V98.776Z" fill="#EBE7F2"/>
    <path d="M95.2979 50.9693H70.7026C69.8071 50.9693 69.0815 50.3573 69.0815 49.6021C69.0815 48.8468 69.8071 48.2349 70.7026 48.2349H95.2979C96.1934 48.2349 96.919 48.8468 96.919 49.6021C96.919 50.3573 96.1934 50.9693 95.2979 50.9693Z" fill="#F9B087"/>
    <path d="M83 41.3908C82.1045 41.3908 81.3789 40.7788 81.3789 40.0236V36.7423C81.3789 35.9871 82.1045 35.3752 83 35.3752C83.8955 35.3752 84.6211 35.9871 84.6211 36.7423V40.0236C84.6211 40.7783 83.8955 41.3908 83 41.3908Z" fill="#F9B087"/>
    <path d="M83 50.9693C82.1045 50.9693 81.3789 50.3573 81.3789 49.6021V46.3208C81.3789 45.5656 82.1045 44.9536 83 44.9536C83.8955 44.9536 84.6211 45.5656 84.6211 46.3208V49.6021C84.6211 50.3573 83.8955 50.9693 83 50.9693Z" fill="#F9B087"/>
    <path d="M95.2979 26.0077H70.7026C69.8071 26.0077 69.0815 25.3958 69.0815 24.6405C69.0815 23.8853 69.8071 23.2733 70.7026 23.2733H95.2979C96.1934 23.2733 96.919 23.8853 96.919 24.6405C96.919 25.3958 96.1934 26.0077 95.2979 26.0077Z" fill="#F9B087"/>
    <path d="M135.075 79.304C134.18 79.304 133.454 79.9159 133.454 80.6712V122.714H125.563V91.6174C125.563 89.9735 123.977 88.6358 122.027 88.6358H105.034C103.085 88.6358 101.499 89.9735 101.499 91.6174V122.714H91.7641V91.5206C91.7641 89.9298 90.2293 88.6353 88.343 88.6353H44.7115C42.8252 88.6353 41.2904 89.9298 41.2904 91.5206V122.714H34.002V80.6712C34.002 79.9159 33.2764 79.304 32.3809 79.304C31.4854 79.304 30.7598 79.9159 30.7598 80.6712V124.081C30.7598 124.836 31.4854 125.448 32.3809 125.448H135.075C135.971 125.448 136.696 124.836 136.696 124.081V80.6712C136.696 79.9159 135.97 79.304 135.075 79.304ZM122.32 109.656H120.62V105.736H122.32V109.656ZM66.5269 96.2571C68.017 96.2571 69.229 97.2792 69.229 98.5359V100.815H63.8255V98.5359C63.8255 97.2792 65.0375 96.2571 66.5269 96.2571ZM52.0622 116.948H56.0612V122.714H52.0622V116.948ZM80.9923 122.714H76.9934V116.948H80.9923V122.714ZM84.2345 122.714V115.724L86.36 107.327C86.5474 106.589 85.9885 105.862 85.1131 105.705C84.2383 105.546 83.3759 106.018 83.1892 106.757L81.3016 114.213H75.3716C74.4761 114.213 73.7505 114.825 73.7505 115.58V122.714H68.1474V110.476H73.4263C74.3218 110.476 75.0474 109.864 75.0474 109.109C75.0474 108.353 74.3218 107.741 73.4263 107.741H59.6276C58.7321 107.741 58.0065 108.353 58.0065 109.109C58.0065 109.864 58.7321 110.476 59.6276 110.476H64.9058V122.714H59.3033V115.58C59.3033 114.825 58.5777 114.213 57.6822 114.213H51.7523L49.8653 106.757C49.6786 106.018 48.8162 105.546 47.9414 105.705C47.066 105.862 46.5077 106.589 46.6945 107.327L48.82 115.724V122.714H44.5326V91.5206C44.5326 91.4375 44.613 91.3697 44.7115 91.3697H64.9065V93.7169C62.4158 94.3141 60.5834 96.2462 60.5834 98.5359V102.182C60.5834 102.937 61.309 103.549 62.2044 103.549H70.8501C71.7456 103.549 72.4712 102.937 72.4712 102.182V98.5359C72.4712 96.2462 70.6393 94.3141 68.148 93.7169V91.3697H88.343C88.4415 91.3697 88.5219 91.4375 88.5219 91.5206V122.714H84.2345ZM104.741 122.714V91.6174C104.741 91.4807 104.873 91.3702 105.034 91.3702H122.027C122.189 91.3702 122.32 91.4812 122.32 91.6174V103.002H118.998C118.103 103.002 117.377 103.614 117.377 104.369V111.023C117.377 111.779 118.103 112.39 118.998 112.39H122.32V122.714H104.741V122.714Z" fill="#A0FFE1"/>
    <path d="M122.793 43.6899H130.597C131.607 43.6899 132.521 44.2263 132.872 45.0253L136.952 54.3173C137.195 54.8691 137.814 55.2098 138.473 55.2098C138.66 55.2098 138.85 55.1824 139.036 55.1245C139.875 54.8625 140.304 54.0756 139.993 53.3679L135.912 44.0759C135.093 42.2095 132.957 40.9555 130.597 40.9555H122.793C121.897 40.9555 121.172 41.5674 121.172 42.3227C121.172 43.0779 121.897 43.6899 122.793 43.6899Z" fill="#A0FFE1"/>
    <path d="M26.9849 55.1245C27.1703 55.1824 27.361 55.2098 27.5477 55.2098C28.2065 55.2098 28.8258 54.8685 29.0683 54.3173L33.1489 45.0253C33.4997 44.2269 34.414 43.6899 35.4243 43.6899H43.2152C44.1107 43.6899 44.8363 43.0779 44.8363 42.3227C44.8363 41.5674 44.1107 40.9555 43.2152 40.9555H35.4236C33.064 40.9555 30.9274 42.2095 30.1084 44.0759L26.0278 53.3679C25.7165 54.0756 26.1451 54.862 26.9849 55.1245Z" fill="#A0FFE1"/>
    <path d="M138.472 58.3406H111.257C110.362 58.3406 109.636 58.9526 109.636 59.7078C109.636 60.4631 110.362 61.075 111.257 61.075H121.002V68.9117C121.002 71.843 118.174 74.2279 114.698 74.2279C111.223 74.2279 108.395 71.843 108.395 68.9117V63.2942C108.395 62.539 107.669 61.927 106.774 61.927C105.878 61.927 105.153 62.539 105.153 63.2942V68.9117C105.153 71.843 102.325 74.2279 98.8493 74.2279C95.3737 74.2279 92.5459 71.843 92.5459 68.9117C92.5459 68.1565 91.8203 67.5445 90.9248 67.5445C90.0293 67.5445 89.3037 68.1565 89.3037 68.9117C89.3037 71.843 86.4758 74.2279 83.0002 74.2279C79.5246 74.2279 76.6968 71.843 76.6968 68.9117C76.6968 68.1565 75.9711 67.5445 75.0757 67.5445C74.1802 67.5445 73.4546 68.1565 73.4546 68.9117C73.4546 71.843 70.6267 74.2279 67.1511 74.2279C63.6755 74.2279 60.8476 71.843 60.8476 68.9117V63.525C60.8476 62.7698 60.122 62.1578 59.2265 62.1578C58.3311 62.1578 57.6054 62.7698 57.6054 63.525V68.9117C57.6054 71.843 54.7776 74.2279 51.302 74.2279C47.8264 74.2279 44.9985 71.843 44.9985 68.9117V61.075H54.0968C54.9922 61.075 55.7178 60.4631 55.7178 59.7078C55.7178 58.9526 54.9922 58.3406 54.0968 58.3406H27.5283C26.6328 58.3406 25.9072 58.9526 25.9072 59.7078V68.9117C25.9072 73.3507 30.1895 76.9623 35.4529 76.9623C38.7502 76.9623 41.6617 75.5442 43.3774 73.3939C45.0932 75.5442 48.0047 76.9623 51.302 76.9623C54.5993 76.9623 57.5108 75.5442 59.2265 73.3939C60.9423 75.5442 63.8531 76.9623 67.1511 76.9623C70.4484 76.9623 73.3599 75.5442 75.0757 73.3939C76.7914 75.5442 79.7029 76.9623 83.0002 76.9623C86.2975 76.9623 89.209 75.5442 90.9248 73.3939C92.6405 75.5442 95.552 76.9623 98.8493 76.9623C102.147 76.9623 105.058 75.5442 106.774 73.3939C108.49 75.5442 111.401 76.9623 114.698 76.9623C117.996 76.9623 120.907 75.5442 122.623 73.3939C124.339 75.5442 127.25 76.9623 130.548 76.9623C135.811 76.9623 140.093 73.3507 140.093 68.9117V59.7078C140.093 58.9526 139.368 58.3406 138.472 58.3406ZM35.4522 74.2279C31.9766 74.2279 29.1488 71.843 29.1488 68.9117V61.075H41.7557V68.9117C41.7563 71.8435 38.9285 74.2279 35.4522 74.2279ZM136.851 68.9117C136.851 71.843 134.023 74.2279 130.548 74.2279C127.072 74.2279 124.244 71.843 124.244 68.9117V61.075H136.851V68.9117Z" fill="#A0FFE1"/>
    <path d="M70.7023 56.3336H95.2975C96.193 56.3336 96.9186 55.7216 96.9186 54.9664V48.1124C96.9186 45.8391 95.7482 43.6838 93.7063 42.1991L91.4854 40.5841C90.1593 39.6194 89.3981 38.2189 89.3981 36.7423C89.3981 35.2658 90.1587 33.8647 91.4847 32.9005L93.7063 31.2851C95.7476 29.8009 96.918 27.6456 96.918 25.3723V18.5177C96.918 17.7625 96.1924 17.1505 95.2969 17.1505H70.7017C69.8062 17.1505 69.0806 17.7625 69.0806 18.5177V25.3728C69.0806 27.6456 70.2516 29.8009 72.2929 31.2856L74.5138 32.9005C75.8399 33.8652 76.6012 35.2658 76.6012 36.7429C76.6012 38.22 75.8405 39.62 74.5145 40.5847L72.2936 42.1996C70.2523 43.6844 69.0812 45.8396 69.0812 48.1124V54.9669C69.0812 55.7216 69.8068 56.3336 70.7023 56.3336ZM72.3234 48.1119C72.3234 46.6348 73.084 45.2348 74.4107 44.2701L76.6323 42.6546C78.6736 41.1704 79.844 39.0152 79.844 36.7418C79.844 34.469 78.6736 32.3137 76.6316 30.829L74.4107 29.2141C73.0847 28.2494 72.3234 26.8494 72.3234 25.3723V19.8849H93.6765V25.3728C93.6765 26.8499 92.9158 28.2499 91.5898 29.2146L89.3682 30.8301C87.327 32.3143 86.1565 34.4695 86.1565 36.7429C86.1565 39.0157 87.327 41.1709 89.3689 42.6557L91.5898 44.2706C92.9158 45.2353 93.6771 46.6359 93.6771 48.113V53.5992H72.3241V48.1119H72.3234Z" fill="#A0FFE1"/>
    <path d="M83.0002 66.2003C63.7403 66.2003 48.0708 52.9851 48.0708 36.7418C48.0708 20.4985 63.7403 7.28381 83.0002 7.28381C102.26 7.28381 117.93 20.499 117.93 36.7423C117.93 52.9856 102.26 66.2003 83.0002 66.2003ZM83.0002 10.0182C65.528 10.0182 51.313 22.0062 51.313 36.7423C51.313 51.4784 65.5274 63.4665 83.0002 63.4665C100.473 63.4665 114.687 51.4784 114.687 36.7423C114.687 22.0062 100.472 10.0182 83.0002 10.0182Z" fill="#F9B087"/>
</svg>